<?xml version="1.0" encoding="UTF-8"?>
<svg xmlns="http://www.w3.org/2000/svg" xmlns:xlink="http://www.w3.org/1999/xlink" width="24pt" height="19.136902pt" viewBox="0 0 24 19.136902" version="1.1">
<defs>
<clipPath id="clip1">
  <path d="M 0 0 L 24 0 L 24 19.136719 L 0 19.136719 Z M 0 0 "/>
</clipPath>
</defs>
<g id="surface1">
<g clip-path="url(#clip1)" clip-rule="nonzero">
<path style=" stroke:none;fill-rule:nonzero;fill:rgb(43.920898%,46.273804%,51.371765%);fill-opacity:1;" d="M 19.207031 7.160156 L 18.898438 7.695313 C 18.785156 7.894531 18.546875 7.976563 18.332031 7.898438 C 17.890625 7.734375 17.484375 7.496094 17.128906 7.199219 C 16.957031 7.058594 16.910156 6.804688 17.023438 6.613281 L 17.332031 6.074219 C 17.070313 5.773438 16.871094 5.425781 16.734375 5.046875 L 16.117188 5.046875 C 15.890625 5.046875 15.695313 4.886719 15.65625 4.660156 C 15.582031 4.210938 15.578125 3.738281 15.65625 3.269531 C 15.695313 3.042969 15.890625 2.878906 16.117188 2.878906 L 16.734375 2.878906 C 16.871094 2.5 17.070313 2.152344 17.332031 1.851563 L 17.023438 1.316406 C 16.910156 1.121094 16.953125 0.871094 17.128906 0.726563 C 17.484375 0.429688 17.894531 0.195313 18.332031 0.03125 C 18.546875 -0.0507813 18.785156 0.0351563 18.898438 0.230469 L 19.207031 0.769531 C 19.597656 0.695313 20 0.695313 20.394531 0.769531 L 20.703125 0.230469 C 20.816406 0.0351563 21.054688 -0.0507813 21.269531 0.03125 C 21.710938 0.195313 22.117188 0.429688 22.472656 0.726563 C 22.644531 0.871094 22.691406 1.121094 22.578125 1.316406 L 22.269531 1.851563 C 22.527344 2.152344 22.730469 2.5 22.867188 2.878906 L 23.484375 2.878906 C 23.710938 2.878906 23.90625 3.042969 23.941406 3.265625 C 24.015625 3.714844 24.019531 4.1875 23.941406 4.65625 C 23.90625 4.882813 23.710938 5.046875 23.484375 5.046875 L 22.867188 5.046875 C 22.730469 5.425781 22.527344 5.773438 22.269531 6.074219 L 22.578125 6.613281 C 22.691406 6.804688 22.648438 7.058594 22.472656 7.199219 C 22.117188 7.496094 21.707031 7.734375 21.269531 7.898438 C 21.054688 7.976563 20.816406 7.894531 20.703125 7.695313 L 20.394531 7.160156 C 20.003906 7.230469 19.597656 7.230469 19.207031 7.160156 Z M 18.8125 4.953125 C 20.253906 6.0625 21.902344 4.417969 20.792969 2.972656 C 19.347656 1.859375 17.703125 3.511719 18.8125 4.953125 Z M 14.488281 10.726563 L 15.75 11.355469 C 16.128906 11.574219 16.296875 12.035156 16.144531 12.445313 C 15.8125 13.355469 15.15625 14.1875 14.546875 14.914063 C 14.269531 15.25 13.789063 15.332031 13.410156 15.113281 L 12.320313 14.484375 C 11.71875 14.996094 11.023438 15.40625 10.261719 15.671875 L 10.261719 16.933594 C 10.261719 17.367188 9.949219 17.742188 9.523438 17.816406 C 8.601563 17.976563 7.632813 17.980469 6.675781 17.816406 C 6.246094 17.742188 5.925781 17.371094 5.925781 16.933594 L 5.925781 15.671875 C 5.164063 15.402344 4.46875 14.996094 3.867188 14.484375 L 2.777344 15.109375 C 2.402344 15.328125 1.917969 15.246094 1.640625 14.910156 C 1.03125 14.183594 0.390625 13.351563 0.0546875 12.445313 C -0.09375 12.039063 0.0703125 11.578125 0.449219 11.355469 L 1.699219 10.726563 C 1.554688 9.941406 1.554688 9.136719 1.699219 8.347656 L 0.449219 7.714844 C 0.0703125 7.496094 -0.0976563 7.035156 0.0546875 6.625 C 0.390625 5.71875 1.03125 4.886719 1.640625 4.160156 C 1.917969 3.824219 2.398438 3.742188 2.777344 3.960938 L 3.867188 4.589844 C 4.46875 4.074219 5.164063 3.667969 5.925781 3.402344 L 5.925781 2.136719 C 5.925781 1.707031 6.234375 1.332031 6.660156 1.257813 C 7.582031 1.097656 8.554688 1.089844 9.511719 1.253906 C 9.941406 1.328125 10.261719 1.699219 10.261719 2.136719 L 10.261719 3.398438 C 11.023438 3.667969 11.71875 4.074219 12.320313 4.585938 L 13.410156 3.957031 C 13.785156 3.738281 14.269531 3.820313 14.546875 4.15625 C 15.15625 4.882813 15.792969 5.714844 16.125 6.621094 C 16.277344 7.03125 16.128906 7.492188 15.75 7.714844 L 14.488281 8.34375 C 14.632813 9.132813 14.632813 9.9375 14.488281 10.726563 Z M 10.078125 11.515625 C 12.296875 8.628906 9 5.332031 6.113281 7.550781 C 3.894531 10.441406 7.191406 13.738281 10.078125 11.515625 Z M 19.207031 18.367188 L 18.898438 18.90625 C 18.785156 19.105469 18.546875 19.1875 18.332031 19.105469 C 17.890625 18.941406 17.484375 18.707031 17.128906 18.410156 C 16.957031 18.265625 16.910156 18.015625 17.023438 17.820313 L 17.332031 17.285156 C 17.070313 16.984375 16.871094 16.636719 16.734375 16.257813 L 16.117188 16.257813 C 15.890625 16.257813 15.695313 16.097656 15.65625 15.871094 C 15.582031 15.421875 15.578125 14.949219 15.65625 14.480469 C 15.695313 14.253906 15.890625 14.089844 16.117188 14.089844 L 16.734375 14.089844 C 16.871094 13.710938 17.070313 13.363281 17.332031 13.0625 L 17.023438 12.527344 C 16.910156 12.332031 16.953125 12.078125 17.128906 11.9375 C 17.484375 11.640625 17.894531 11.402344 18.332031 11.238281 C 18.546875 11.160156 18.785156 11.242188 18.898438 11.441406 L 19.207031 11.976563 C 19.597656 11.90625 20 11.90625 20.394531 11.976563 L 20.703125 11.441406 C 20.816406 11.242188 21.054688 11.160156 21.269531 11.238281 C 21.710938 11.402344 22.117188 11.640625 22.472656 11.9375 C 22.644531 12.078125 22.691406 12.332031 22.578125 12.527344 L 22.269531 13.0625 C 22.527344 13.363281 22.730469 13.710938 22.867188 14.089844 L 23.484375 14.089844 C 23.710938 14.089844 23.90625 14.25 23.941406 14.476563 C 24.015625 14.925781 24.019531 15.398438 23.941406 15.867188 C 23.90625 16.09375 23.710938 16.257813 23.484375 16.257813 L 22.867188 16.257813 C 22.730469 16.636719 22.527344 16.984375 22.269531 17.285156 L 22.578125 17.820313 C 22.691406 18.015625 22.648438 18.265625 22.472656 18.410156 C 22.117188 18.707031 21.707031 18.941406 21.269531 19.105469 C 21.054688 19.1875 20.816406 19.105469 20.703125 18.90625 L 20.394531 18.367188 C 20.003906 18.441406 19.597656 18.441406 19.207031 18.367188 Z M 18.8125 16.160156 C 20.253906 17.269531 21.902344 15.625 20.792969 14.179688 C 19.347656 13.070313 17.703125 14.714844 18.8125 16.160156 Z M 18.8125 16.160156 "/>
</g>
</g>
</svg>
