<?xml version="1.0" encoding="UTF-8"?>
<svg xmlns="http://www.w3.org/2000/svg" xmlns:xlink="http://www.w3.org/1999/xlink" width="14.777832pt" height="14pt" viewBox="0 0 14.777832 14" version="1.1">
<defs>
<clipPath id="clip1">
  <path d="M 0 0 L 14.777344 0 L 14.777344 14 L 0 14 Z M 0 0 "/>
</clipPath>
</defs>
<g id="surface1">
<g clip-path="url(#clip1)" clip-rule="nonzero">
<path style=" stroke:none;fill-rule:nonzero;fill:rgb(12.548828%,33.332825%,70.979309%);fill-opacity:1;" d="M 6.925781 2 L 8.773438 2 C 8.898438 2 9.015625 1.949219 9.101563 1.855469 C 9.1875 1.761719 9.234375 1.632813 9.234375 1.5 L 9.234375 0.5 C 9.234375 0.367188 9.1875 0.238281 9.101563 0.144531 C 9.015625 0.0507813 8.898438 0 8.773438 0 L 6.925781 0 C 6.804688 0 6.6875 0.0507813 6.601563 0.144531 C 6.515625 0.238281 6.464844 0.367188 6.464844 0.5 L 6.464844 1.5 C 6.464844 1.632813 6.515625 1.761719 6.601563 1.855469 C 6.6875 1.949219 6.804688 2 6.925781 2 Z M 6.925781 6 L 10.621094 6 C 10.742188 6 10.863281 5.949219 10.949219 5.855469 C 11.035156 5.761719 11.082031 5.632813 11.082031 5.5 L 11.082031 4.5 C 11.082031 4.367188 11.035156 4.238281 10.949219 4.144531 C 10.863281 4.050781 10.742188 4 10.621094 4 L 6.925781 4 C 6.804688 4 6.6875 4.050781 6.601563 4.144531 C 6.515625 4.238281 6.464844 4.367188 6.464844 4.5 L 6.464844 5.5 C 6.464844 5.632813 6.515625 5.761719 6.601563 5.855469 C 6.6875 5.949219 6.804688 6 6.925781 6 Z M 14.316406 12 L 6.925781 12 C 6.804688 12 6.6875 12.050781 6.601563 12.144531 C 6.515625 12.238281 6.464844 12.367188 6.464844 12.5 L 6.464844 13.5 C 6.464844 13.632813 6.515625 13.761719 6.601563 13.855469 C 6.6875 13.949219 6.804688 14 6.925781 14 L 14.316406 14 C 14.4375 14 14.554688 13.949219 14.640625 13.855469 C 14.730469 13.761719 14.777344 13.632813 14.777344 13.5 L 14.777344 12.5 C 14.777344 12.367188 14.730469 12.238281 14.640625 12.144531 C 14.554688 12.050781 14.4375 12 14.316406 12 Z M 6.925781 10 L 12.46875 10 C 12.589844 10 12.707031 9.949219 12.796875 9.855469 C 12.882813 9.761719 12.929688 9.632813 12.929688 9.5 L 12.929688 8.5 C 12.929688 8.367188 12.882813 8.238281 12.796875 8.144531 C 12.707031 8.050781 12.589844 8 12.46875 8 L 6.925781 8 C 6.804688 8 6.6875 8.050781 6.601563 8.144531 C 6.515625 8.238281 6.464844 8.367188 6.464844 8.5 L 6.464844 9.5 C 6.464844 9.632813 6.515625 9.761719 6.601563 9.855469 C 6.6875 9.949219 6.804688 10 6.925781 10 Z M 5.078125 4 L 3.695313 4 L 3.695313 13.5 C 3.695313 13.632813 3.644531 13.757813 3.558594 13.851563 C 3.472656 13.945313 3.355469 14 3.234375 14 L 2.308594 14 C 2.1875 14 2.070313 13.945313 1.984375 13.851563 C 1.894531 13.757813 1.847656 13.632813 1.847656 13.5 L 1.847656 4 L 0.460938 4 C 0.0507813 4 -0.15625 3.460938 0.136719 3.144531 L 2.445313 0.144531 C 2.53125 0.0507813 2.648438 0 2.769531 0 C 2.894531 0 3.011719 0.0507813 3.097656 0.144531 L 5.40625 3.144531 C 5.695313 3.460938 5.492188 4 5.078125 4 Z M 5.078125 4 "/>
</g>
</g>
</svg>
